Viet face 4.0 copy.ufo
<glyph name="C" format="2">
  <advance width="330"/>
  <unicode hex="0043"/>
  <outline>
    <contour>
      <point x="40" y="600" type="line" smooth="yes"/>
      <point x="34" y="600"/>
      <point x="30" y="596"/>
      <point x="30" y="590" type="curve" smooth="yes"/>
      <point x="30" y="80" type="line"/>
      <point x="120" y="80" type="line"/>
      <point x="120" y="146"/>
      <point x="120" y="356"/>
      <point x="120" y="590" type="curve" smooth="yes"/>
      <point x="120" y="593"/>
      <point x="120" y="600"/>
      <point x="110" y="600" type="curve" smooth="yes"/>
    </contour>
    <contour>
      <point x="240" y="600" type="line"/>
      <point x="120" y="560" type="line"/>
      <point x="119" y="520" type="line"/>
      <point x="290" y="520" type="line" smooth="yes"/>
      <point x="296" y="520"/>
      <point x="300" y="524"/>
      <point x="300" y="530" type="curve" smooth="yes"/>
      <point x="300" y="590" type="line" smooth="yes"/>
      <point x="300" y="596"/>
      <point x="296" y="600"/>
      <point x="290" y="600" type="curve" smooth="yes"/>
    </contour>
    <contour>
      <point x="30" y="80" type="curve"/>
      <point x="30" y="10" type="line" smooth="yes"/>
      <point x="30" y="4"/>
      <point x="34" y="0"/>
      <point x="40" y="0" type="curve" smooth="yes"/>
      <point x="290" y="0" type="line" smooth="yes"/>
      <point x="296" y="0"/>
      <point x="300" y="4"/>
      <point x="300" y="10" type="curve" smooth="yes"/>
      <point x="300" y="70" type="line" smooth="yes"/>
      <point x="300" y="76"/>
      <point x="296" y="80"/>
      <point x="290" y="80" type="curve" smooth="yes"/>
      <point x="30" y="80"/>
      <point x="30" y="80"/>
    </contour>
    <contour>
      <point x="120" y="520" type="line"/>
      <point x="130" y="520" type="line"/>
      <point x="124" y="521"/>
      <point x="120" y="517"/>
      <point x="120" y="510" type="curve"/>
    </contour>
    <contour>
      <point x="120" y="90" type="line"/>
      <point x="120" y="83"/>
      <point x="124" y="79"/>
      <point x="130" y="80" type="curve"/>
      <point x="120" y="80" type="line"/>
    </contour>
  </outline>
</glyph>
<glyph name="J" format="2">
  <advance width="320"/>
  <unicode hex="004A"/>
  <outline>
    <contour>
      <point x="290" y="589" type="line" smooth="yes"/>
      <point x="290.0" y="595.0"/>
      <point x="285.0" y="600.0"/>
      <point x="279" y="600" type="curve" smooth="yes"/>
      <point x="210" y="600" type="line" smooth="yes"/>
      <point x="204.0" y="600.0"/>
      <point x="200.0" y="596.0"/>
      <point x="200" y="590" type="curve" smooth="yes"/>
      <point x="200" y="210" type="line"/>
      <point x="290" y="210" type="line"/>
    </contour>
    <contour>
      <point x="290" y="210" type="line"/>
      <point x="200" y="210" type="line"/>
      <point x="200" y="50" type="line"/>
      <point x="290" y="50" type="line"/>
    </contour>
    <contour>
      <point x="200" y="50" type="move"/>
      <point x="290" y="50" type="line"/>
    </contour>
    <contour>
      <point x="200" y="50" type="move"/>
      <point x="290" y="50" type="line"/>
    </contour>
    <contour>
      <point x="290" y="50" type="line"/>
      <point x="200" y="50" type="line"/>
      <point x="30" y="90" type="line"/>
      <point x="24" y="90"/>
      <point x="20.0" y="86.0"/>
      <point x="20" y="80" type="curve" smooth="yes"/>
      <point x="20" y="10" type="line" smooth="yes"/>
      <point x="20.0" y="4.0"/>
      <point x="24.0" y="0.0"/>
      <point x="30" y="0" type="curve" smooth="yes"/>
      <point x="251" y="0" type="line"/>
    </contour>
  </outline>
</glyph>
<glyph name="N" format="2">
  <advance width="330"/>
  <unicode hex="004E"/>
  <outline>
    <contour>
      <point x="30" y="590" type="curve" smooth="yes"/>
      <point x="30" y="10" type="line" smooth="yes"/>
      <point x="30" y="0"/>
      <point x="40" y="0"/>
      <point x="40" y="0" type="curve"/>
      <point x="110" y="0" type="line"/>
      <point x="110" y="0"/>
      <point x="120" y="0"/>
      <point x="120" y="10" type="curve" smooth="yes"/>
      <point x="120" y="500"/>
      <point x="120" y="600"/>
      <point x="120" y="600" type="curve"/>
      <point x="40" y="600" type="line"/>
      <point x="40" y="600"/>
      <point x="30" y="600"/>
    </contour>
    <contour>
      <point x="290" y="0" type="curve"/>
      <point x="300" y="0"/>
      <point x="290" y="0"/>
    </contour>
    <contour>
      <point x="210" y="590" type="line"/>
      <point x="210" y="10" type="line" smooth="yes"/>
      <point x="210" y="0"/>
      <point x="220" y="0"/>
      <point x="220" y="0" type="curve"/>
      <point x="290" y="0" type="line"/>
      <point x="290" y="0"/>
      <point x="300" y="0"/>
      <point x="300" y="10" type="curve" smooth="yes"/>
      <point x="300" y="590" type="line"/>
    </contour>
    <contour>
      <point x="210" y="530" type="line"/>
      <point x="120" y="600" type="line"/>
      <point x="120" y="490" type="line"/>
      <point x="210" y="430" type="line"/>
    </contour>
    <contour>
      <point x="300" y="590" type="line"/>
      <point x="300" y="600"/>
      <point x="290" y="600"/>
      <point x="290" y="600" type="curve"/>
      <point x="220" y="600" type="line"/>
      <point x="220" y="600"/>
      <point x="210" y="600"/>
      <point x="210" y="590" type="curve"/>
    </contour>
    <contour>
      <point x="290" y="600" type="curve"/>
      <point x="290" y="600"/>
      <point x="300" y="600"/>
    </contour>
    <contour>
      <point x="300" y="590" type="curve"/>
      <point x="300" y="600"/>
      <point x="300" y="600"/>
    </contour>
  </outline>
</glyph>
<glyph name="O" format="2">
  <advance width="330"/>
  <unicode hex="004F"/>
  <outline>
    <contour>
      <point x="120" y="520" type="line"/>
      <point x="30" y="520" type="line"/>
      <point x="30" y="520"/>
      <point x="30" y="600"/>
      <point x="30" y="590" type="curve" smooth="yes"/>
      <point x="30" y="80" type="line"/>
      <point x="120" y="80" type="line"/>
    </contour>
    <contour>
      <point x="71" y="600" type="line"/>
      <point x="30" y="560" type="line"/>
      <point x="30" y="520" type="line"/>
      <point x="31" y="520"/>
      <point x="300" y="520"/>
      <point x="300" y="520" type="curve"/>
      <point x="300" y="590" type="line"/>
      <point x="300" y="590"/>
      <point x="300" y="600"/>
      <point x="290" y="600" type="curve" smooth="yes"/>
    </contour>
    <contour>
      <point x="30" y="80" type="curve"/>
      <point x="30" y="10" type="line"/>
      <point x="30" y="10"/>
      <point x="30" y="0"/>
      <point x="40" y="0" type="curve" smooth="yes"/>
      <point x="260" y="0" type="line"/>
      <point x="300" y="39" type="line"/>
      <point x="300" y="80" type="line"/>
      <point x="300" y="80"/>
      <point x="300" y="80"/>
    </contour>
    <contour>
      <point x="120" y="520" type="line"/>
      <point x="130" y="520" type="line"/>
      <point x="130" y="520"/>
      <point x="120" y="520"/>
      <point x="120" y="510" type="curve"/>
    </contour>
    <contour>
      <point x="120" y="90" type="line"/>
      <point x="120" y="80"/>
      <point x="130" y="80"/>
      <point x="130" y="80" type="curve"/>
      <point x="120" y="80" type="line"/>
    </contour>
    <contour>
      <point x="210" y="80" type="line"/>
      <point x="210" y="80"/>
      <point x="300" y="79"/>
      <point x="300" y="80" type="curve" smooth="yes"/>
      <point x="300" y="490"/>
      <point x="300" y="520"/>
      <point x="300" y="520" type="curve"/>
      <point x="210" y="520" type="line"/>
    </contour>
    <contour>
      <point x="210" y="80" type="line"/>
      <point x="200" y="80" type="line"/>
      <point x="200" y="80"/>
      <point x="210" y="80"/>
      <point x="210" y="90" type="curve"/>
    </contour>
    <contour>
      <point x="210" y="510" type="line"/>
      <point x="210" y="520"/>
      <point x="200" y="520"/>
      <point x="200" y="520" type="curve"/>
      <point x="210" y="520" type="line"/>
    </contour>
  </outline>
</glyph>
<glyph name="R" format="2">
  <advance width="350"/>
  <unicode hex="0052"/>
  <outline>
    <contour>
      <point x="120" y="520" type="line"/>
      <point x="30" y="520" type="line"/>
      <point x="30" y="575"/>
      <point x="30.0" y="595.0"/>
      <point x="30" y="589" type="curve" smooth="yes"/>
      <point x="30" y="10" type="line" smooth="yes"/>
      <point x="30.0" y="4.0"/>
      <point x="34.0" y="0.0"/>
      <point x="40" y="0" type="curve" smooth="yes"/>
      <point x="110" y="0" type="line" smooth="yes"/>
      <point x="116.0" y="0.0"/>
      <point x="120.0" y="4.0"/>
      <point x="120" y="10" type="curve" smooth="yes"/>
    </contour>
    <contour>
      <point x="40" y="600" type="line" smooth="yes"/>
      <point x="34.0" y="600.0"/>
      <point x="30.0" y="596.0"/>
      <point x="30" y="589" type="curve" smooth="yes"/>
      <point x="30" y="520" type="line"/>
      <point x="230" y="520" type="line"/>
      <point x="230" y="410" type="line"/>
      <point x="320" y="410" type="line"/>
      <point x="320" y="569" type="line"/>
      <point x="280" y="600" type="line"/>
    </contour>
    <contour>
      <point x="120" y="520" type="line"/>
      <point x="130" y="520" type="line"/>
      <point x="124" y="520"/>
      <point x="120" y="517"/>
      <point x="120" y="510" type="curve"/>
    </contour>
    <contour>
      <point x="230" y="10" type="line" smooth="yes"/>
      <point x="230" y="5"/>
      <point x="235" y="0"/>
      <point x="240" y="0" type="curve" smooth="yes"/>
      <point x="310" y="0" type="line" smooth="yes"/>
      <point x="316" y="0"/>
      <point x="320" y="3"/>
      <point x="320" y="10" type="curve" smooth="yes"/>
      <point x="320" y="330" type="line" smooth="yes"/>
      <point x="281" y="370" type="line"/>
      <point x="231" y="330" type="line"/>
    </contour>
    <contour>
      <point x="230" y="510" type="line"/>
      <point x="230" y="517"/>
      <point x="226" y="520"/>
      <point x="220" y="520" type="curve"/>
      <point x="230" y="520" type="line"/>
    </contour>
    <contour>
      <point x="120" y="410" type="curve"/>
      <point x="120" y="330" type="line"/>
      <point x="231" y="330" type="line"/>
      <point x="320" y="400" type="line"/>
      <point x="320" y="410" type="line"/>
      <point x="320" y="410"/>
      <point x="320" y="410"/>
    </contour>
    <contour>
      <point x="120" y="330" type="line"/>
      <point x="120" y="324" type="line"/>
    </contour>
    <contour>
      <point x="130" y="410" type="line"/>
      <point x="120" y="410" type="line"/>
    </contour>
    <contour>
      <point x="120" y="319" type="curve"/>
      <point x="120" y="312"/>
      <point x="120" y="312"/>
    </contour>
    <contour>
      <point x="120" y="330" type="line"/>
      <point x="130" y="330" type="line"/>
      <point x="124" y="331"/>
      <point x="120" y="326"/>
      <point x="120" y="319" type="curve"/>
    </contour>
    <contour>
      <point x="120" y="420" type="line"/>
      <point x="120" y="414"/>
      <point x="124" y="410"/>
      <point x="130" y="410" type="curve"/>
      <point x="120" y="410" type="line"/>
    </contour>
    <contour>
      <point x="230" y="410" type="line"/>
      <point x="220" y="410" type="line"/>
      <point x="226" y="410"/>
      <point x="230" y="413"/>
      <point x="230" y="420" type="curve"/>
    </contour>
    <contour>
      <point x="231" y="319" type="curve"/>
      <point x="231" y="330" type="line"/>
      <point x="221" y="330" type="line"/>
      <point x="227" y="330"/>
      <point x="231" y="327"/>
    </contour>
  </outline>
</glyph>
<glyph name="S" format="2">
  <advance width="350"/>
  <unicode hex="0053"/>
  <outline>
    <contour>
      <point x="300" y="600" type="line"/>
      <point x="71" y="600" type="line"/>
    </contour>
    <contour>
      <point x="120" y="520" type="line"/>
      <point x="120" y="600" type="line"/>
      <point x="71" y="600" type="line"/>
      <point x="30" y="570" type="line"/>
      <point x="30" y="520" type="line"/>
    </contour>
    <contour>
      <point x="120" y="520" type="line"/>
      <point x="30" y="520" type="line"/>
      <point x="30" y="320" type="line" smooth="yes"/>
      <point x="30" y="281" type="line"/>
      <point x="70" y="240" type="line"/>
      <point x="120" y="240" type="line" smooth="yes"/>
      <point x="320" y="240" type="line"/>
      <point x="320" y="271" type="line"/>
      <point x="280" y="320" type="line"/>
      <point x="120" y="320" type="line"/>
      <point x="120" y="519" type="line" smooth="yes"/>
    </contour>
    <contour>
      <point x="230" y="0" type="line"/>
      <point x="290" y="0" type="line"/>
      <point x="320" y="49" type="line"/>
      <point x="320" y="240" type="line"/>
      <point x="230" y="240" type="line"/>
    </contour>
    <contour>
      <point x="120" y="320" type="move"/>
      <point x="120" y="321" type="line"/>
    </contour>
    <contour>
      <point x="120" y="320" type="line"/>
      <point x="120" y="330" type="line"/>
      <point x="120" y="324"/>
      <point x="124" y="320"/>
      <point x="130" y="320" type="curve"/>
    </contour>
    <contour>
      <point x="230" y="240" type="move"/>
      <point x="230" y="239" type="line"/>
    </contour>
    <contour>
      <point x="230" y="240" type="line"/>
      <point x="230" y="230" type="line"/>
      <point x="230" y="236"/>
      <point x="226" y="240"/>
      <point x="220" y="240" type="curve"/>
    </contour>
    <contour>
      <point x="230" y="50" type="move"/>
      <point x="40" y="80" type="line"/>
      <point x="34" y="80"/>
      <point x="30" y="76"/>
      <point x="30" y="70" type="curve" smooth="yes"/>
      <point x="30" y="10" type="line" smooth="yes"/>
      <point x="30" y="4"/>
      <point x="34" y="0"/>
      <point x="40" y="0" type="curve" smooth="yes"/>
      <point x="230" y="0" type="line"/>
    </contour>
    <contour>
      <point x="120" y="550" type="move"/>
      <point x="310" y="519" type="line"/>
      <point x="316" y="519"/>
      <point x="320" y="523"/>
      <point x="320" y="529" type="curve" smooth="yes"/>
      <point x="320" y="589" type="line" smooth="yes"/>
      <point x="320" y="595"/>
      <point x="316" y="600"/>
      <point x="310" y="600" type="curve" smooth="yes"/>
      <point x="120" y="600" type="line"/>
    </contour>
  </outline>
</glyph>
<glyph name="U" format="2">
  <advance width="330"/>
  <unicode hex="0055"/>
  <outline>
    <contour>
      <point x="120" y="590" type="line" smooth="yes"/>
      <point x="120.0" y="596.0"/>
      <point x="115.0" y="600.0"/>
      <point x="110" y="600" type="curve" smooth="yes"/>
      <point x="40" y="600" type="line" smooth="yes"/>
      <point x="35.0" y="600.0"/>
      <point x="30.0" y="595.0"/>
      <point x="30" y="590" type="curve" smooth="yes"/>
      <point x="29.99999999999998" y="474.0"/>
      <point x="30" y="267"/>
      <point x="30" y="80" type="curve"/>
      <point x="120" y="80" type="line"/>
    </contour>
    <contour>
      <point x="30" y="80" type="curve"/>
      <point x="30" y="10" type="line" smooth="yes"/>
      <point x="30.0" y="4.0"/>
      <point x="34" y="0"/>
      <point x="40" y="0" type="curve" smooth="yes"/>
      <point x="290" y="0" type="line" smooth="yes"/>
      <point x="296" y="0"/>
      <point x="300" y="4"/>
      <point x="300" y="10" type="curve" smooth="yes"/>
      <point x="300" y="80" type="line"/>
      <point x="300" y="80"/>
      <point x="300" y="80"/>
    </contour>
    <contour>
      <point x="120" y="90" type="line"/>
      <point x="120" y="84"/>
      <point x="124" y="80"/>
      <point x="130" y="80" type="curve"/>
      <point x="120" y="80" type="line"/>
    </contour>
    <contour>
      <point x="210" y="80" type="line"/>
      <point x="300" y="80" type="line" smooth="yes"/>
      <point x="300" y="326"/>
      <point x="300.0" y="535.0"/>
      <point x="300" y="590" type="curve" smooth="yes"/>
      <point x="300.0" y="595.0"/>
      <point x="295.0" y="600.0"/>
      <point x="290" y="600" type="curve" smooth="yes"/>
      <point x="220" y="600" type="line" smooth="yes"/>
      <point x="216.0" y="600.0"/>
      <point x="210.0" y="596.0"/>
      <point x="210" y="590" type="curve" smooth="yes"/>
    </contour>
    <contour>
      <point x="210" y="80" type="line"/>
      <point x="200" y="80" type="line"/>
      <point x="206" y="80"/>
      <point x="210" y="84"/>
      <point x="210" y="90" type="curve"/>
    </contour>
  </outline>
</glyph>
<glyph name="X" format="2">
  <advance width="400"/>
  <unicode hex="0058"/>
  <outline>
    <contour>
      <point x="30" y="80" type="line"/>
      <point x="30" y="10" type="line" smooth="yes"/>
      <point x="30" y="4"/>
      <point x="34" y="0"/>
      <point x="40" y="0" type="curve" smooth="yes"/>
      <point x="107" y="0" type="line" smooth="yes"/>
      <point x="114" y="0"/>
      <point x="120" y="5"/>
      <point x="120" y="10" type="curve" smooth="yes"/>
      <point x="120" y="80" type="line"/>
      <point x="369" y="520" type="line"/>
      <point x="280" y="520" type="line"/>
    </contour>
    <contour>
      <point x="370" y="520" type="line"/>
      <point x="370" y="590" type="line" smooth="yes"/>
      <point x="370" y="596"/>
      <point x="366" y="600"/>
      <point x="360" y="600" type="curve" smooth="yes"/>
      <point x="290" y="600" type="line" smooth="yes"/>
      <point x="284" y="600"/>
      <point x="280" y="596"/>
      <point x="280" y="590" type="curve" smooth="yes"/>
      <point x="280" y="520" type="line"/>
    </contour>
    <contour>
      <point x="370" y="80" type="line"/>
      <point x="120" y="520" type="line"/>
      <point x="31" y="520" type="line"/>
      <point x="280" y="80" type="line"/>
      <point x="280" y="10" type="line" smooth="yes"/>
      <point x="280" y="5"/>
      <point x="286" y="0"/>
      <point x="293" y="0" type="curve" smooth="yes"/>
      <point x="360" y="0" type="line" smooth="yes"/>
      <point x="366" y="0"/>
      <point x="370" y="4"/>
      <point x="370" y="10" type="curve" smooth="yes"/>
    </contour>
    <contour>
      <point x="30" y="520" type="line"/>
      <point x="120" y="520" type="line"/>
      <point x="120" y="590" type="line" smooth="yes"/>
      <point x="120" y="596"/>
      <point x="116" y="600"/>
      <point x="110" y="600" type="curve" smooth="yes"/>
      <point x="40" y="600" type="line" smooth="yes"/>
      <point x="34" y="600"/>
      <point x="30" y="596"/>
      <point x="30" y="590" type="curve" smooth="yes"/>
    </contour>
  </outline>
</glyph>
<glyph name="Y" format="2">
  <advance width="330"/>
  <unicode hex="0059"/>
  <outline>
    <contour>
      <point x="290" y="599" type="curve" smooth="yes"/>
      <point x="220" y="599" type="line" smooth="yes"/>
      <point x="210" y="599"/>
      <point x="210" y="592"/>
      <point x="210" y="589" type="curve" smooth="yes"/>
      <point x="210" y="250" type="line"/>
      <point x="300" y="250" type="line"/>
      <point x="300" y="589" type="line" smooth="yes"/>
      <point x="300" y="595"/>
      <point x="296" y="599"/>
    </contour>
    <contour>
      <point x="120" y="589" type="line" smooth="yes"/>
      <point x="120" y="595"/>
      <point x="116" y="599"/>
      <point x="110" y="599" type="curve" smooth="yes"/>
      <point x="40" y="599" type="line" smooth="yes"/>
      <point x="34" y="599"/>
      <point x="30" y="595"/>
      <point x="30" y="589" type="curve" smooth="yes"/>
      <point x="30" y="250" type="line"/>
      <point x="120" y="250" type="line"/>
    </contour>
    <contour>
      <point x="300" y="250" type="line"/>
      <point x="30" y="250" type="line"/>
      <point x="30" y="180" type="line" smooth="yes"/>
      <point x="30" y="174"/>
      <point x="34" y="170"/>
      <point x="40" y="170" type="curve" smooth="yes"/>
      <point x="210" y="170" type="line"/>
      <point x="210" y="50" type="line"/>
      <point x="300" y="50" type="line"/>
      <point x="300" y="170" type="line"/>
    </contour>
    <contour>
      <point x="210" y="260" type="curve"/>
      <point x="210" y="250" type="line"/>
      <point x="200" y="250" type="line"/>
      <point x="206" y="250"/>
      <point x="210" y="253"/>
    </contour>
    <contour>
      <point x="120" y="260" type="line"/>
      <point x="120" y="253"/>
      <point x="124" y="250"/>
      <point x="130" y="250" type="curve"/>
      <point x="120" y="250" type="line"/>
    </contour>
    <contour>
      <point x="210" y="170" type="move"/>
      <point x="211" y="170" type="line"/>
    </contour>
    <contour>
      <point x="210" y="170" type="line"/>
      <point x="210" y="160" type="line"/>
      <point x="210" y="167"/>
      <point x="206" y="170"/>
      <point x="200" y="170" type="curve"/>
    </contour>
    <contour>
      <point x="210" y="50" type="move"/>
      <point x="300" y="50" type="line"/>
    </contour>
    <contour>
      <point x="210" y="50" type="line"/>
    </contour>
    <contour>
      <point x="210" y="50" type="move"/>
      <point x="300" y="50" type="line"/>
    </contour>
    <contour>
      <point x="300" y="50" type="line"/>
      <point x="210" y="50" type="line"/>
      <point x="40" y="90" type="line"/>
      <point x="30" y="90"/>
      <point x="30" y="80"/>
      <point x="30" y="80" type="curve"/>
      <point x="30" y="10" type="line"/>
      <point x="30" y="10"/>
      <point x="30" y="0"/>
      <point x="40" y="0" type="curve" smooth="yes"/>
      <point x="260" y="0" type="line"/>
      <point x="300" y="50" type="line"/>
    </contour>
  </outline>
</glyph>
<glyph name="b" format="2">
  <advance width="330"/>
  <unicode hex="0062"/>
  <outline>
    <contour>
      <point x="30" y="590" type="line"/>
      <point x="30" y="20" type="line" smooth="yes"/>
      <point x="30" y="14"/>
      <point x="34" y="10"/>
      <point x="40" y="10" type="curve" smooth="yes"/>
      <point x="69" y="10"/>
      <point x="101" y="10"/>
      <point x="109" y="10" type="curve" smooth="yes"/>
      <point x="115" y="10"/>
      <point x="120" y="15"/>
      <point x="120" y="21" type="curve" smooth="yes"/>
      <point x="120" y="590" type="line"/>
    </contour>
    <contour>
      <point x="290" y="10" type="curve"/>
      <point x="296" y="10"/>
      <point x="296" y="10"/>
    </contour>
    <contour>
      <point x="120" y="440" type="line"/>
      <point x="120" y="436"/>
      <point x="120" y="432"/>
      <point x="120" y="430" type="curve"/>
    </contour>
    <contour>
      <point x="120" y="350" type="line"/>
      <point x="120" y="348"/>
      <point x="120" y="344"/>
      <point x="120" y="340" type="curve"/>
    </contour>
    <contour>
      <point x="300" y="390" type="line"/>
      <point x="260" y="430" type="line"/>
      <point x="210" y="430" type="line"/>
      <point x="210" y="337"/>
      <point x="210" y="91"/>
      <point x="210" y="10" type="curve"/>
      <point x="290" y="10" type="line" smooth="yes"/>
      <point x="296" y="10"/>
      <point x="300" y="14"/>
      <point x="300" y="20" type="curve" smooth="yes"/>
      <point x="300" y="420" type="line"/>
    </contour>
    <contour>
      <point x="210" y="340" type="line"/>
      <point x="210" y="347"/>
      <point x="206" y="351"/>
      <point x="200" y="350" type="curve"/>
      <point x="210" y="350" type="line"/>
    </contour>
    <contour>
      <point x="210" y="430" type="line"/>
      <point x="120" y="430" type="line"/>
      <point x="120" y="350" type="line"/>
      <point x="210" y="350" type="line"/>
    </contour>
    <contour>
      <point x="120" y="590" type="line"/>
      <point x="120" y="596"/>
      <point x="116" y="600"/>
      <point x="110" y="600" type="curve" smooth="yes"/>
      <point x="40" y="600" type="line" smooth="yes"/>
      <point x="34" y="600"/>
      <point x="30" y="596"/>
      <point x="30" y="590" type="curve"/>
    </contour>
    <contour>
      <point x="210" y="0" type="line"/>
      <point x="210" y="3"/>
      <point x="210" y="7"/>
      <point x="210" y="10" type="curve"/>
    </contour>
    <contour>
      <point x="210" y="90" type="line"/>
      <point x="210" y="92"/>
      <point x="210" y="96"/>
      <point x="210" y="100" type="curve"/>
    </contour>
    <contour>
      <point x="120" y="100" type="line"/>
      <point x="120" y="93"/>
      <point x="124" y="89"/>
      <point x="130" y="90" type="curve"/>
      <point x="120" y="90" type="line"/>
    </contour>
    <contour>
      <point x="120" y="50" type="line"/>
      <point x="210" y="10" type="line"/>
      <point x="210" y="90" type="line"/>
      <point x="120" y="90" type="line"/>
    </contour>
    <contour>
      <point x="120" y="340" type="curve"/>
      <point x="120" y="350" type="line"/>
      <point x="130" y="350" type="line"/>
      <point x="124" y="351"/>
      <point x="120" y="347"/>
    </contour>
    <contour>
      <point x="210" y="100" type="curve"/>
      <point x="210" y="90" type="line"/>
      <point x="200" y="90" type="line"/>
      <point x="206" y="89"/>
      <point x="210" y="93"/>
    </contour>
  </outline>
</glyph>
<glyph name="e" format="2">
  <advance width="330"/>
  <unicode hex="0065"/>
  <outline>
    <contour>
      <point x="120" y="240" type="line"/>
      <point x="120" y="160" type="line"/>
      <point x="290" y="160" type="line" smooth="yes"/>
      <point x="300" y="160"/>
      <point x="300" y="170"/>
      <point x="300" y="170" type="curve"/>
      <point x="300" y="258"/>
      <point x="300" y="340"/>
      <point x="300" y="340" type="curve"/>
      <point x="220" y="340" type="line"/>
      <point x="220" y="240" type="line"/>
    </contour>
    <contour>
      <point x="120" y="160" type="line"/>
      <point x="130" y="160" type="line"/>
      <point x="130" y="160"/>
      <point x="120" y="160"/>
      <point x="120" y="150" type="curve"/>
    </contour>
    <contour>
      <point x="120" y="251" type="line"/>
      <point x="120" y="240"/>
      <point x="130" y="240"/>
      <point x="130" y="240" type="curve"/>
      <point x="120" y="240" type="line"/>
    </contour>
    <contour>
      <point x="220" y="240" type="line"/>
      <point x="210" y="240" type="line"/>
      <point x="210" y="240"/>
      <point x="220" y="239"/>
      <point x="220" y="250" type="curve"/>
    </contour>
    <contour>
      <point x="40" y="420" type="line"/>
      <point x="40" y="420"/>
      <point x="30" y="420"/>
      <point x="30" y="410" type="curve" smooth="yes"/>
      <point x="30" y="50" type="line"/>
      <point x="120" y="50" type="line"/>
      <point x="120" y="50"/>
      <point x="120" y="19"/>
      <point x="120" y="409" type="curve" smooth="yes"/>
      <point x="120" y="412"/>
      <point x="120" y="420"/>
      <point x="110" y="420" type="curve" smooth="yes"/>
    </contour>
    <contour>
      <point x="240" y="420" type="line"/>
      <point x="120" y="380" type="line"/>
      <point x="120" y="379"/>
      <point x="120" y="340"/>
      <point x="120" y="340" type="curve"/>
      <point x="301" y="340"/>
      <point x="300" y="340"/>
      <point x="300" y="340" type="curve"/>
      <point x="300" y="410" type="line"/>
      <point x="300" y="410"/>
      <point x="300" y="420"/>
      <point x="290" y="420" type="curve" smooth="yes"/>
    </contour>
    <contour>
      <point x="30" y="50" type="line"/>
      <point x="30" y="10" type="line"/>
      <point x="30" y="10"/>
      <point x="30" y="0"/>
      <point x="40" y="0" type="curve" smooth="yes"/>
      <point x="120" y="0" type="line"/>
      <point x="290" y="0" type="line" smooth="yes"/>
      <point x="300" y="0"/>
      <point x="300" y="10"/>
      <point x="300" y="10" type="curve"/>
      <point x="300" y="70" type="line"/>
      <point x="300" y="70"/>
      <point x="300" y="80"/>
      <point x="290" y="80" type="curve"/>
      <point x="120" y="50" type="line"/>
    </contour>
    <contour>
      <point x="120" y="340" type="line"/>
      <point x="130" y="340" type="line"/>
      <point x="130" y="340"/>
      <point x="120" y="341"/>
      <point x="120" y="330" type="curve"/>
    </contour>
    <contour>
      <point x="220" y="340" type="line"/>
      <point x="220" y="330" type="line"/>
      <point x="220" y="341"/>
      <point x="210" y="340"/>
      <point x="210" y="340" type="curve"/>
    </contour>
  </outline>
</glyph>
<glyph name="o" format="2">
  <advance width="330"/>
  <unicode hex="006F"/>
  <outline>
    <contour>
      <point x="120" y="340" type="line"/>
      <point x="30" y="340" type="line"/>
      <point x="30" y="340"/>
      <point x="30" y="419"/>
      <point x="30" y="409" type="curve" smooth="yes"/>
      <point x="30" y="80" type="line"/>
      <point x="120" y="80" type="line"/>
    </contour>
    <contour>
      <point x="69" y="420" type="line"/>
      <point x="30" y="380" type="line"/>
      <point x="30" y="340" type="line"/>
      <point x="31" y="340"/>
      <point x="300" y="340"/>
      <point x="300" y="340" type="curve"/>
      <point x="300" y="409" type="line"/>
      <point x="300" y="409"/>
      <point x="300" y="420"/>
      <point x="290" y="420" type="curve" smooth="yes"/>
    </contour>
    <contour>
      <point x="30" y="80" type="curve"/>
      <point x="30" y="10" type="line"/>
      <point x="30" y="10"/>
      <point x="30" y="0"/>
      <point x="40" y="0" type="curve" smooth="yes"/>
      <point x="260" y="0" type="line"/>
      <point x="300" y="40" type="line"/>
      <point x="300" y="80" type="line"/>
      <point x="300" y="80"/>
      <point x="300" y="80"/>
    </contour>
    <contour>
      <point x="120" y="340" type="line"/>
      <point x="130" y="340" type="line"/>
      <point x="130" y="340"/>
      <point x="120" y="341"/>
      <point x="120" y="330" type="curve"/>
    </contour>
    <contour>
      <point x="120" y="90" type="line"/>
      <point x="120" y="80"/>
      <point x="130" y="80"/>
      <point x="130" y="80" type="curve"/>
      <point x="120" y="80" type="line"/>
    </contour>
    <contour>
      <point x="210" y="80" type="line"/>
      <point x="210" y="80"/>
      <point x="300" y="79"/>
      <point x="300" y="80" type="curve" smooth="yes"/>
      <point x="300" y="490"/>
      <point x="300" y="340"/>
      <point x="300" y="340" type="curve"/>
      <point x="210" y="340" type="line"/>
    </contour>
    <contour>
      <point x="210" y="80" type="line"/>
      <point x="200" y="80" type="line"/>
      <point x="200" y="80"/>
      <point x="210" y="79"/>
      <point x="210" y="90" type="curve"/>
    </contour>
    <contour>
      <point x="210" y="330" type="line"/>
      <point x="210" y="341"/>
      <point x="200" y="340"/>
      <point x="200" y="340" type="curve"/>
      <point x="210" y="340" type="line"/>
    </contour>
  </outline>
</glyph>
<glyph name="r" format="2">
  <advance width="330"/>
  <unicode hex="0072"/>
  <outline>
    <contour>
      <point x="40" y="420" type="line"/>
      <point x="40" y="420"/>
      <point x="30" y="420"/>
      <point x="30" y="410" type="curve" smooth="yes"/>
      <point x="30" y="90" type="line"/>
      <point x="120" y="90" type="line"/>
      <point x="120" y="410" type="line" smooth="yes"/>
      <point x="120" y="413"/>
      <point x="120" y="420"/>
      <point x="110" y="420" type="curve" smooth="yes"/>
    </contour>
    <contour>
      <point x="240" y="420" type="line"/>
      <point x="120" y="380" type="line"/>
      <point x="120" y="379"/>
      <point x="119" y="340"/>
      <point x="119" y="340" type="curve"/>
      <point x="290" y="340" type="line" smooth="yes"/>
      <point x="300" y="340"/>
      <point x="300" y="350"/>
      <point x="300" y="350" type="curve"/>
      <point x="300" y="410" type="line"/>
      <point x="300" y="410"/>
      <point x="300" y="420"/>
      <point x="290" y="420" type="curve" smooth="yes"/>
    </contour>
    <contour>
      <point x="30" y="10" type="curve"/>
      <point x="30" y="10"/>
      <point x="30" y="0"/>
      <point x="40" y="0" type="curve" smooth="yes"/>
      <point x="110" y="0" type="line" smooth="yes"/>
      <point x="120" y="0"/>
      <point x="120" y="10"/>
      <point x="120" y="10" type="curve"/>
      <point x="120" y="90" type="line"/>
      <point x="30" y="90" type="line"/>
      <point x="30" y="89"/>
      <point x="30" y="10"/>
    </contour>
    <contour>
      <point x="120" y="340" type="line"/>
      <point x="130" y="340" type="line"/>
      <point x="130" y="340"/>
      <point x="120" y="341"/>
      <point x="120" y="330" type="curve"/>
    </contour>
    <contour>
      <point x="240" y="420" type="line"/>
      <point x="241" y="340" type="line"/>
    </contour>
  </outline>
</glyph>
<glyph name="t" format="2">
  <advance width="290"/>
  <unicode hex="0074"/>
  <outline>
    <contour>
      <point x="190" y="578" type="line" smooth="yes"/>
      <point x="190" y="585"/>
      <point x="185" y="590"/>
      <point x="178" y="590" type="curve" smooth="yes"/>
      <point x="110" y="590" type="line" smooth="yes"/>
      <point x="104" y="590"/>
      <point x="100" y="584"/>
      <point x="100" y="578" type="curve" smooth="yes"/>
      <point x="100" y="10" type="line" smooth="yes"/>
      <point x="100" y="4"/>
      <point x="104" y="0"/>
      <point x="110" y="0" type="curve" smooth="yes"/>
      <point x="177" y="0" type="line" smooth="yes"/>
      <point x="185" y="0"/>
      <point x="190" y="5"/>
      <point x="190" y="13" type="curve" smooth="yes"/>
    </contour>
    <contour>
      <point x="100" y="350" type="line"/>
      <point x="100" y="340" type="line"/>
      <point x="100" y="350"/>
      <point x="90" y="350"/>
      <point x="90" y="350" type="curve"/>
    </contour>
    <contour>
      <point x="190" y="340" type="curve"/>
      <point x="190" y="350" type="line"/>
      <point x="200" y="350" type="line"/>
      <point x="200" y="350"/>
      <point x="190" y="350"/>
    </contour>
    <contour>
      <point x="100" y="350" type="line"/>
      <point x="190" y="350" type="line"/>
    </contour>
    <contour>
      <point x="250" y="430" type="line"/>
      <point x="100" y="390" type="line"/>
      <point x="100" y="350" type="line"/>
      <point x="260" y="350" type="line" smooth="yes"/>
      <point x="266" y="350"/>
      <point x="270" y="354"/>
      <point x="270" y="360" type="curve" smooth="yes"/>
      <point x="270" y="420" type="line" smooth="yes"/>
      <point x="270" y="426"/>
      <point x="266" y="430"/>
      <point x="260" y="430" type="curve" smooth="yes"/>
    </contour>
    <contour>
      <point x="40" y="430" type="line"/>
      <point x="30" y="430" type="line" smooth="yes"/>
      <point x="24" y="430"/>
      <point x="20" y="426"/>
      <point x="20" y="420" type="curve" smooth="yes"/>
      <point x="20" y="360" type="line" smooth="yes"/>
      <point x="20" y="354"/>
      <point x="24" y="350"/>
      <point x="30" y="350" type="curve" smooth="yes"/>
      <point x="190" y="350" type="line"/>
      <point x="190" y="390" type="line"/>
    </contour>
    <contour>
      <point x="190" y="350" type="curve"/>
      <point x="190" y="340" type="line"/>
      <point x="190" y="348"/>
      <point x="190" y="350"/>
    </contour>
  </outline>
</glyph>
<glyph name="u" format="2">
  <advance width="330"/>
  <unicode hex="0075"/>
  <outline>
    <contour>
      <point x="290" y="0" type="line"/>
      <point x="290" y="0"/>
      <point x="300" y="0"/>
      <point x="300" y="10" type="curve" smooth="yes"/>
      <point x="300" y="330" type="line"/>
      <point x="210" y="330" type="line"/>
      <point x="210" y="10" type="line" smooth="yes"/>
      <point x="210" y="7"/>
      <point x="210" y="0"/>
      <point x="220" y="0" type="curve" smooth="yes"/>
    </contour>
    <contour>
      <point x="90" y="0" type="line"/>
      <point x="210" y="40" type="line"/>
      <point x="210" y="40"/>
      <point x="210" y="80"/>
      <point x="210" y="80" type="curve"/>
      <point x="30" y="80" type="line"/>
      <point x="30" y="80"/>
      <point x="30" y="11"/>
      <point x="30" y="10" type="curve"/>
      <point x="30" y="10"/>
      <point x="30" y="0"/>
      <point x="40" y="0" type="curve" smooth="yes"/>
    </contour>
    <contour>
      <point x="300" y="410" type="curve"/>
      <point x="300" y="410"/>
      <point x="300" y="420"/>
      <point x="290" y="420" type="curve" smooth="yes"/>
      <point x="220" y="420" type="line" smooth="yes"/>
      <point x="210" y="420"/>
      <point x="210" y="410"/>
      <point x="210" y="410" type="curve"/>
      <point x="210" y="330" type="line"/>
      <point x="300" y="330" type="line"/>
      <point x="300" y="331"/>
      <point x="300" y="410"/>
    </contour>
    <contour>
      <point x="210" y="80" type="line"/>
      <point x="200" y="80" type="line"/>
      <point x="200" y="80"/>
      <point x="210" y="79"/>
      <point x="210" y="90" type="curve"/>
    </contour>
    <contour>
      <point x="90" y="0" type="line"/>
    </contour>
    <contour>
      <point x="30" y="80" type="line"/>
    </contour>
    <contour>
      <point x="120" y="410" type="curve"/>
      <point x="120" y="410"/>
      <point x="120" y="420"/>
      <point x="110" y="420" type="curve" smooth="yes"/>
      <point x="40" y="420" type="line" smooth="yes"/>
      <point x="30" y="420"/>
      <point x="30" y="410"/>
      <point x="30" y="410" type="curve"/>
      <point x="30" y="80" type="line"/>
      <point x="120" y="80" type="line"/>
      <point x="120" y="81"/>
      <point x="120" y="410"/>
    </contour>
    <contour>
      <point x="120" y="80" type="line"/>
      <point x="120" y="90" type="line"/>
      <point x="120" y="79"/>
      <point x="130" y="80"/>
      <point x="130" y="80" type="curve"/>
    </contour>
    <contour>
      <point x="210" y="90"/>
      <point x="210" y="79"/>
      <point x="210" y="90" type="curve"/>
    </contour>
  </outline>
</glyph>
<glyph name="v" format="2">
  <advance width="330"/>
  <unicode hex="0076"/>
  <outline>
    <contour>
      <point x="120" y="410" type="line" smooth="yes"/>
      <point x="120" y="416"/>
      <point x="115" y="420"/>
      <point x="110" y="420" type="curve" smooth="yes"/>
      <point x="40" y="420" type="line" smooth="yes"/>
      <point x="35" y="420"/>
      <point x="30" y="415"/>
      <point x="30" y="410" type="curve"/>
      <point x="30" y="80" type="line"/>
      <point x="120" y="80" type="line"/>
    </contour>
    <contour>
      <point x="30" y="80" type="curve"/>
      <point x="30" y="80" type="line"/>
      <point x="30" y="79"/>
      <point x="119" y="0"/>
      <point x="119" y="0" type="curve" smooth="yes"/>
      <point x="220" y="0" type="line"/>
      <point x="300" y="79" type="line"/>
      <point x="300" y="80" type="line"/>
      <point x="300" y="80"/>
      <point x="300" y="80"/>
    </contour>
    <contour>
      <point x="120" y="90" type="line"/>
      <point x="120" y="84"/>
      <point x="124" y="80"/>
      <point x="130" y="80" type="curve"/>
      <point x="120" y="80" type="line"/>
    </contour>
    <contour>
      <point x="210" y="80" type="line"/>
      <point x="300" y="80" type="line"/>
      <point x="300" y="410" type="line"/>
      <point x="300" y="415"/>
      <point x="295" y="420"/>
      <point x="290" y="420" type="curve" smooth="yes"/>
      <point x="220" y="420" type="line" smooth="yes"/>
      <point x="216" y="420"/>
      <point x="210" y="416"/>
      <point x="210" y="410" type="curve" smooth="yes"/>
    </contour>
    <contour>
      <point x="210" y="80" type="line"/>
      <point x="200" y="80" type="line"/>
      <point x="206" y="80"/>
      <point x="210" y="84"/>
      <point x="210" y="90" type="curve"/>
    </contour>
  </outline>
</glyph>
<glyph name="w" format="2">
  <advance width="510"/>
  <unicode hex="0077"/>
  <outline>
    <contour>
      <point x="120" y="410" type="line" smooth="yes"/>
      <point x="120" y="416"/>
      <point x="115" y="420"/>
      <point x="110" y="420" type="curve" smooth="yes"/>
      <point x="40" y="420" type="line" smooth="yes"/>
      <point x="35" y="420"/>
      <point x="30" y="415"/>
      <point x="30" y="410" type="curve"/>
      <point x="30" y="80" type="line"/>
      <point x="120" y="80" type="line"/>
    </contour>
    <contour>
      <point x="30" y="80" type="curve"/>
      <point x="30" y="80" type="line"/>
      <point x="30" y="79"/>
      <point x="119" y="0"/>
      <point x="119" y="0" type="curve" smooth="yes"/>
      <point x="220" y="0" type="line"/>
      <point x="300" y="79" type="line"/>
      <point x="300" y="80" type="line"/>
      <point x="300" y="80"/>
      <point x="300" y="80"/>
    </contour>
    <contour>
      <point x="120" y="90" type="line"/>
      <point x="120" y="84"/>
      <point x="124" y="80"/>
      <point x="130" y="80" type="curve"/>
      <point x="120" y="80" type="line"/>
    </contour>
    <contour>
      <point x="210" y="80" type="line"/>
      <point x="300" y="80" type="line" smooth="yes"/>
      <point x="300" y="80"/>
      <point x="300" y="410"/>
      <point x="300" y="410" type="curve" smooth="yes"/>
      <point x="300" y="414"/>
      <point x="295" y="420"/>
      <point x="290" y="420" type="curve" smooth="yes"/>
      <point x="220" y="420" type="line" smooth="yes"/>
      <point x="216" y="420"/>
      <point x="210" y="416"/>
      <point x="210" y="410" type="curve" smooth="yes"/>
    </contour>
    <contour>
      <point x="210" y="80" type="line"/>
      <point x="200" y="80" type="line"/>
      <point x="206" y="80"/>
      <point x="210" y="84"/>
      <point x="210" y="90" type="curve"/>
    </contour>
    <contour>
      <point x="210" y="80" type="line"/>
      <point x="300" y="80" type="line"/>
    </contour>
    <contour>
      <point x="210" y="80" type="curve"/>
      <point x="210" y="80" type="line"/>
      <point x="210" y="79"/>
      <point x="299" y="0"/>
      <point x="299" y="0" type="curve" smooth="yes"/>
      <point x="400" y="0" type="line"/>
      <point x="480" y="79" type="line"/>
      <point x="480" y="80" type="line"/>
      <point x="480" y="80"/>
      <point x="480" y="80"/>
    </contour>
    <contour>
      <point x="300" y="90" type="line"/>
      <point x="300" y="84"/>
      <point x="304" y="80"/>
      <point x="310" y="80" type="curve"/>
      <point x="300" y="80" type="line"/>
    </contour>
    <contour>
      <point x="390" y="80" type="line"/>
      <point x="480" y="80" type="line"/>
      <point x="480" y="410" type="line"/>
      <point x="480" y="415"/>
      <point x="475" y="420"/>
      <point x="470" y="420" type="curve" smooth="yes"/>
      <point x="400" y="420" type="line" smooth="yes"/>
      <point x="396" y="420"/>
      <point x="390" y="416"/>
      <point x="390" y="410" type="curve" smooth="yes"/>
    </contour>
    <contour>
      <point x="390" y="80" type="line"/>
      <point x="380" y="80" type="line"/>
      <point x="386" y="80"/>
      <point x="390" y="84"/>
      <point x="390" y="90" type="curve"/>
    </contour>
  </outline>
</glyph>
<glyph name="y" format="2">
  <advance width="320"/>
  <unicode hex="0079"/>
  <outline>
    <contour>
      <point x="280" y="420" type="curve" smooth="yes"/>
      <point x="210" y="420" type="line" smooth="yes"/>
      <point x="200" y="420"/>
      <point x="200" y="413"/>
      <point x="200" y="410" type="curve" smooth="yes"/>
      <point x="200" y="90" type="line"/>
      <point x="290" y="90" type="line"/>
      <point x="290" y="410" type="line" smooth="yes"/>
      <point x="290" y="416"/>
      <point x="286" y="420"/>
    </contour>
    <contour>
      <point x="110" y="410" type="line" smooth="yes"/>
      <point x="110" y="416"/>
      <point x="106" y="420"/>
      <point x="100" y="420" type="curve" smooth="yes"/>
      <point x="30" y="420" type="line" smooth="yes"/>
      <point x="24" y="420"/>
      <point x="20" y="416"/>
      <point x="20" y="410" type="curve" smooth="yes"/>
      <point x="20" y="90" type="line"/>
      <point x="110" y="90" type="line"/>
    </contour>
    <contour>
      <point x="290" y="90" type="line"/>
      <point x="20" y="90" type="line"/>
      <point x="20" y="20" type="line" smooth="yes"/>
      <point x="20" y="14"/>
      <point x="24" y="10"/>
      <point x="30" y="10" type="curve" smooth="yes"/>
      <point x="200" y="10" type="line"/>
      <point x="200" y="-150" type="line"/>
      <point x="290" y="-150" type="line"/>
      <point x="290" y="10" type="line"/>
    </contour>
    <contour>
      <point x="200" y="100" type="curve"/>
      <point x="200" y="90" type="line"/>
      <point x="190" y="90" type="line"/>
      <point x="196" y="90"/>
      <point x="200" y="93"/>
    </contour>
    <contour>
      <point x="110" y="100" type="line"/>
      <point x="110" y="93"/>
      <point x="114" y="90"/>
      <point x="120" y="90" type="curve"/>
      <point x="110" y="90" type="line"/>
    </contour>
    <contour>
      <point x="200" y="10" type="move"/>
      <point x="201" y="10" type="line"/>
    </contour>
    <contour>
      <point x="200" y="10" type="line"/>
      <point x="200" y="0" type="line"/>
      <point x="200" y="7"/>
      <point x="196" y="10"/>
      <point x="190" y="10" type="curve"/>
    </contour>
    <contour>
      <point x="200" y="-150" type="move"/>
      <point x="290" y="-150" type="line"/>
    </contour>
    <contour>
      <point x="200" y="-150" type="line"/>
    </contour>
    <contour>
      <point x="200" y="-150" type="move"/>
      <point x="290" y="-150" type="line"/>
    </contour>
    <contour>
      <point x="290" y="-150" type="line"/>
      <point x="200" y="-150" type="line"/>
      <point x="30" y="-110" type="line"/>
      <point x="20" y="-110"/>
      <point x="20" y="-120"/>
      <point x="20" y="-120" type="curve"/>
      <point x="20" y="-190" type="line"/>
      <point x="20" y="-190"/>
      <point x="20" y="-200"/>
      <point x="30" y="-200" type="curve" smooth="yes"/>
      <point x="200" y="-200" type="line"/>
      <point x="250" y="-200" type="line"/>
      <point x="290" y="-150" type="line"/>
    </contour>
  </outline>
</glyph>
<glyph name="z" format="2">
  <advance width="330"/>
  <unicode hex="007A"/>
  <outline>
    <contour>
      <point x="30" y="80" type="line"/>
      <point x="30" y="10" type="line" smooth="yes"/>
      <point x="30" y="4"/>
      <point x="34" y="0"/>
      <point x="40" y="0" type="curve" smooth="yes"/>
      <point x="107" y="0" type="line" smooth="yes"/>
      <point x="114" y="0"/>
      <point x="120" y="5"/>
      <point x="120" y="10" type="curve" smooth="yes"/>
      <point x="120" y="40" type="line"/>
      <point x="240" y="0" type="line"/>
      <point x="290" y="0" type="line" smooth="yes"/>
      <point x="296" y="0"/>
      <point x="300" y="3"/>
      <point x="300" y="10" type="curve" smooth="yes"/>
      <point x="300" y="70" type="line" smooth="yes"/>
      <point x="300" y="76"/>
      <point x="296" y="80"/>
      <point x="290" y="80" type="curve" smooth="yes"/>
      <point x="120" y="80" type="line"/>
      <point x="300" y="340" type="line"/>
      <point x="210" y="340" type="line"/>
    </contour>
    <contour>
      <point x="300" y="340" type="line"/>
      <point x="300" y="410" type="line" smooth="yes"/>
      <point x="300" y="416"/>
      <point x="296" y="420"/>
      <point x="290" y="420" type="curve" smooth="yes"/>
      <point x="223" y="420" type="line" smooth="yes"/>
      <point x="216" y="420"/>
      <point x="210" y="417"/>
      <point x="210" y="410" type="curve" smooth="yes"/>
      <point x="210" y="380" type="line"/>
      <point x="90" y="420" type="line"/>
      <point x="40" y="420" type="line" smooth="yes"/>
      <point x="34" y="420"/>
      <point x="30" y="417"/>
      <point x="30" y="410" type="curve" smooth="yes"/>
      <point x="30" y="350" type="line" smooth="yes"/>
      <point x="30" y="344"/>
      <point x="34" y="340"/>
      <point x="40" y="340" type="curve" smooth="yes"/>
    </contour>
  </outline>
</glyph>
<glyph name="!" format="2">
  <advance width="130"/>
  <outline>
    <contour>
      <point x="110" y="190" type="curve" smooth="yes"/>
      <point x="110" y="590" type="line" smooth="yes"/>
      <point x="110" y="597"/>
      <point x="105" y="600"/>
      <point x="100" y="600" type="curve" smooth="yes"/>
      <point x="29" y="600" type="line" smooth="yes"/>
      <point x="23" y="600"/>
      <point x="20" y="595"/>
      <point x="20" y="590" type="curve" smooth="yes"/>
      <point x="20" y="190" type="line" smooth="yes"/>
      <point x="20" y="184"/>
      <point x="24" y="180"/>
      <point x="30" y="180" type="curve" smooth="yes"/>
      <point x="99" y="180" type="line" smooth="yes"/>
      <point x="106" y="180"/>
      <point x="110" y="184"/>
    </contour>
    <contour>
      <point x="110" y="11" type="curve" smooth="yes"/>
      <point x="110" y="67" type="line" smooth="yes"/>
      <point x="110" y="75"/>
      <point x="106" y="80"/>
      <point x="100" y="80" type="curve" smooth="yes"/>
      <point x="30" y="80" type="line" smooth="yes"/>
      <point x="24" y="80"/>
      <point x="20" y="76"/>
      <point x="20" y="70" type="curve" smooth="yes"/>
      <point x="20" y="10" type="line" smooth="yes"/>
      <point x="20" y="4"/>
      <point x="24" y="0"/>
      <point x="30" y="0" type="curve" smooth="yes"/>
      <point x="100" y="0" type="line" smooth="yes"/>
      <point x="106" y="0"/>
      <point x="110" y="5"/>
    </contour>
  </outline>
</glyph>
<glyph name="," format="2">
  <advance width="140"/>
  <outline>
    <contour>
      <point x="120" y="69" type="line" smooth="yes"/>
      <point x="120" y="75"/>
      <point x="116" y="80"/>
      <point x="110" y="80" type="curve" smooth="yes"/>
      <point x="40" y="80" type="line" smooth="yes"/>
      <point x="34" y="80"/>
      <point x="30" y="76"/>
      <point x="30" y="70" type="curve" smooth="yes"/>
      <point x="30" y="10" type="line" smooth="yes"/>
      <point x="30" y="4"/>
      <point x="34" y="0"/>
      <point x="40" y="0" type="curve" smooth="yes"/>
      <point x="70" y="0" type="line"/>
      <point x="70" y="-40" type="line"/>
      <point x="120" y="0" type="line"/>
    </contour>
  </outline>
</glyph>
<glyph name="/" format="2">
  <advance width="220"/>
  <outline>
    <contour>
      <point x="100.06427221172024" y="0" type="curve"/>
      <point x="110.06427221172024" y="0"/>
      <point x="100.06427221172024" y="0"/>
    </contour>
    <contour>
      <point x="110" y="590" type="line"/>
      <point x="20.064272211720237" y="10" type="line" smooth="yes"/>
      <point x="19" y="0"/>
      <point x="30.064272211720237" y="0"/>
      <point x="30.064272211720237" y="0" type="curve"/>
      <point x="100.06427221172024" y="0" type="line"/>
      <point x="100.06427221172024" y="0"/>
      <point x="109" y="0"/>
      <point x="110.06427221172024" y="10" type="curve" smooth="yes"/>
      <point x="200" y="590" type="line"/>
    </contour>
    <contour>
      <point x="190" y="600" type="curve"/>
      <point x="190" y="600"/>
      <point x="200" y="600"/>
    </contour>
    <contour>
      <point x="200" y="590" type="line"/>
      <point x="200" y="600"/>
      <point x="190" y="600"/>
      <point x="190" y="600" type="curve"/>
      <point x="120" y="600" type="line"/>
      <point x="120" y="600"/>
      <point x="110" y="600"/>
      <point x="110" y="590" type="curve"/>
    </contour>
  </outline>
</glyph>
<glyph name="[" format="2">
  <advance width="320"/>
  <outline>
    <contour>
      <point x="40" y="600" type="line"/>
      <point x="34" y="600"/>
      <point x="30" y="596"/>
      <point x="30" y="590" type="curve" smooth="yes"/>
      <point x="30" y="40" type="line"/>
      <point x="120" y="40" type="line"/>
      <point x="120" y="106"/>
      <point x="120" y="366"/>
      <point x="120" y="600" type="curve"/>
    </contour>
    <contour>
      <point x="240" y="600" type="line"/>
      <point x="120" y="600" type="line"/>
      <point x="119" y="520" type="line"/>
      <point x="290" y="520" type="line" smooth="yes"/>
      <point x="296" y="520"/>
      <point x="300" y="524"/>
      <point x="300" y="530" type="curve" smooth="yes"/>
      <point x="300" y="590" type="line" smooth="yes"/>
      <point x="300" y="596"/>
      <point x="296" y="600"/>
      <point x="290" y="600" type="curve" smooth="yes"/>
    </contour>
    <contour>
      <point x="30" y="40" type="curve"/>
      <point x="30" y="-30" type="line" smooth="yes"/>
      <point x="30" y="-36"/>
      <point x="34" y="-40"/>
      <point x="40" y="-40" type="curve" smooth="yes"/>
      <point x="290" y="-40" type="line" smooth="yes"/>
      <point x="296" y="-40"/>
      <point x="300" y="-36"/>
      <point x="300" y="-30" type="curve" smooth="yes"/>
      <point x="300" y="30" type="line" smooth="yes"/>
      <point x="300" y="36"/>
      <point x="296" y="40"/>
      <point x="290" y="40" type="curve" smooth="yes"/>
      <point x="30" y="40"/>
      <point x="30" y="40"/>
    </contour>
    <contour>
      <point x="120" y="520" type="line"/>
      <point x="130" y="520" type="line"/>
      <point x="124" y="521"/>
      <point x="120" y="517"/>
      <point x="120" y="510" type="curve"/>
    </contour>
    <contour>
      <point x="120" y="50" type="line"/>
      <point x="120" y="43"/>
      <point x="124" y="39"/>
      <point x="130" y="40" type="curve"/>
      <point x="120" y="40" type="line"/>
    </contour>
  </outline>
</glyph>
<glyph name="]" format="2">
  <advance width="310"/>
  <outline>
    <contour>
      <point x="280" y="600" type="curve"/>
      <point x="200" y="600" type="line"/>
      <point x="200" y="366"/>
      <point x="200" y="106"/>
      <point x="200" y="40" type="curve"/>
      <point x="290" y="40" type="line"/>
      <point x="290" y="590" type="line" smooth="yes"/>
      <point x="290" y="596"/>
      <point x="286" y="600"/>
    </contour>
    <contour>
      <point x="80" y="600" type="line"/>
      <point x="30" y="600" type="line" smooth="yes"/>
      <point x="24" y="600"/>
      <point x="20" y="596"/>
      <point x="20" y="590" type="curve" smooth="yes"/>
      <point x="20" y="530" type="line" smooth="yes"/>
      <point x="20" y="524"/>
      <point x="24" y="520"/>
      <point x="30" y="520" type="curve" smooth="yes"/>
      <point x="201" y="520" type="line"/>
      <point x="200" y="600" type="line"/>
    </contour>
    <contour>
      <point x="290" y="40" type="line"/>
      <point x="290" y="40"/>
      <point x="290" y="40"/>
      <point x="30" y="40" type="curve" smooth="yes"/>
      <point x="24" y="40"/>
      <point x="20" y="36"/>
      <point x="20" y="30" type="curve" smooth="yes"/>
      <point x="20" y="-30" type="line" smooth="yes"/>
      <point x="20" y="-36"/>
      <point x="24" y="-40"/>
      <point x="30" y="-40" type="curve" smooth="yes"/>
      <point x="280" y="-40" type="line" smooth="yes"/>
      <point x="286" y="-40"/>
      <point x="290" y="-36"/>
      <point x="290" y="-30" type="curve" smooth="yes"/>
    </contour>
    <contour>
      <point x="200" y="520" type="line"/>
      <point x="200" y="510" type="line"/>
      <point x="200" y="517"/>
      <point x="196" y="521"/>
      <point x="190" y="520" type="curve"/>
    </contour>
    <contour>
      <point x="200" y="50" type="curve"/>
      <point x="200" y="40" type="line"/>
      <point x="190" y="40" type="line"/>
      <point x="196" y="39"/>
      <point x="200" y="43"/>
    </contour>
  </outline>
</glyph>
<glyph name="?" format="2">
  <advance width="310"/>
  <outline>
    <contour>
      <point x="174" y="190" type="curve" smooth="yes"/>
      <point x="290" y="540" type="line"/>
      <point x="200" y="590" type="line"/>
      <point x="84" y="190" type="line" smooth="yes"/>
      <point x="82" y="184"/>
      <point x="88" y="180"/>
      <point x="94" y="180" type="curve" smooth="yes"/>
      <point x="163" y="180" type="line" smooth="yes"/>
      <point x="170" y="180"/>
      <point x="172" y="184"/>
    </contour>
    <contour>
      <point x="170" y="11" type="curve" smooth="yes"/>
      <point x="170" y="67" type="line" smooth="yes"/>
      <point x="170" y="75"/>
      <point x="166" y="80"/>
      <point x="160" y="80" type="curve" smooth="yes"/>
      <point x="90" y="80" type="line" smooth="yes"/>
      <point x="84" y="80"/>
      <point x="80" y="76"/>
      <point x="80" y="70" type="curve" smooth="yes"/>
      <point x="80" y="10" type="line" smooth="yes"/>
      <point x="80" y="4"/>
      <point x="84" y="0"/>
      <point x="90" y="0" type="curve" smooth="yes"/>
      <point x="160" y="0" type="line" smooth="yes"/>
      <point x="166" y="0"/>
      <point x="170" y="5"/>
    </contour>
    <contour>
      <point x="200" y="510" type="line"/>
      <point x="280" y="510" type="line"/>
      <point x="290" y="540" type="line"/>
      <point x="249" y="590" type="line"/>
      <point x="200" y="590" type="line"/>
    </contour>
    <contour>
      <point x="200" y="510" type="move"/>
      <point x="200" y="509" type="line"/>
    </contour>
    <contour>
      <point x="200" y="590" type="move"/>
      <point x="30" y="590" type="line" smooth="yes"/>
      <point x="24" y="590"/>
      <point x="20" y="585"/>
      <point x="20" y="579" type="curve" smooth="yes"/>
      <point x="20" y="519" type="line" smooth="yes"/>
      <point x="20" y="513"/>
      <point x="24" y="509"/>
      <point x="30" y="509" type="curve"/>
      <point x="200" y="540" type="line"/>
    </contour>
  </outline>
</glyph>
